<mxfile host="app.diagrams.net" modified="2023-07-07T07:54:53.935Z" agent="Mozilla/5.0 (X11; Linux x86_64) AppleWebKit/537.36 (KHTML, like Gecko) Chrome/111.0.0.0 Safari/537.36" etag="yo21mGgkfrF_JUQsdb9l" version="21.6.1" type="github" pages="2">
  <diagram name="platform" id="e7e014a7-5840-1c2e-5031-d8a46d1fe8dd">
    <mxGraphModel dx="832" dy="1289" grid="1" gridSize="10" guides="1" tooltips="1" connect="1" arrows="1" fold="1" page="1" pageScale="1" pageWidth="1169" pageHeight="826" background="none" math="0" shadow="0">
      <root>
        <mxCell id="0" />
        <mxCell id="1" parent="0" />
        <mxCell id="nC-UhQALeStEsF1EWLqz-45" value="device_driver" style="swimlane;fontStyle=0;childLayout=stackLayout;horizontal=1;startSize=26;fillColor=none;horizontalStack=0;resizeParent=1;resizeParentMax=0;resizeLast=0;collapsible=1;marginBottom=0;" parent="1" vertex="1">
          <mxGeometry x="470" y="66" width="320" height="442" as="geometry" />
        </mxCell>
        <mxCell id="nC-UhQALeStEsF1EWLqz-46" value="const char  *name;" style="text;strokeColor=none;fillColor=none;align=left;verticalAlign=top;spacingLeft=4;spacingRight=4;overflow=hidden;rotatable=0;points=[[0,0.5],[1,0.5]];portConstraint=eastwest;" parent="nC-UhQALeStEsF1EWLqz-45" vertex="1">
          <mxGeometry y="26" width="320" height="26" as="geometry" />
        </mxCell>
        <mxCell id="nC-UhQALeStEsF1EWLqz-47" value="struct bus_type  *bus;" style="text;strokeColor=none;fillColor=none;align=left;verticalAlign=top;spacingLeft=4;spacingRight=4;overflow=hidden;rotatable=0;points=[[0,0.5],[1,0.5]];portConstraint=eastwest;" parent="nC-UhQALeStEsF1EWLqz-45" vertex="1">
          <mxGeometry y="52" width="320" height="26" as="geometry" />
        </mxCell>
        <mxCell id="nC-UhQALeStEsF1EWLqz-48" value="struct module  *owner;" style="text;strokeColor=none;fillColor=none;align=left;verticalAlign=top;spacingLeft=4;spacingRight=4;overflow=hidden;rotatable=0;points=[[0,0.5],[1,0.5]];portConstraint=eastwest;" parent="nC-UhQALeStEsF1EWLqz-45" vertex="1">
          <mxGeometry y="78" width="320" height="26" as="geometry" />
        </mxCell>
        <mxCell id="nC-UhQALeStEsF1EWLqz-49" value="const char  *mod_name;" style="text;strokeColor=none;fillColor=none;align=left;verticalAlign=top;spacingLeft=4;spacingRight=4;overflow=hidden;rotatable=0;points=[[0,0.5],[1,0.5]];portConstraint=eastwest;" parent="nC-UhQALeStEsF1EWLqz-45" vertex="1">
          <mxGeometry y="104" width="320" height="26" as="geometry" />
        </mxCell>
        <mxCell id="nC-UhQALeStEsF1EWLqz-54" value="bool suppress_bind_attrs;" style="text;strokeColor=none;fillColor=none;align=left;verticalAlign=top;spacingLeft=4;spacingRight=4;overflow=hidden;rotatable=0;points=[[0,0.5],[1,0.5]];portConstraint=eastwest;" parent="nC-UhQALeStEsF1EWLqz-45" vertex="1">
          <mxGeometry y="130" width="320" height="26" as="geometry" />
        </mxCell>
        <mxCell id="nC-UhQALeStEsF1EWLqz-55" value="enum probe_type probe_type;" style="text;strokeColor=none;fillColor=none;align=left;verticalAlign=top;spacingLeft=4;spacingRight=4;overflow=hidden;rotatable=0;points=[[0,0.5],[1,0.5]];portConstraint=eastwest;" parent="nC-UhQALeStEsF1EWLqz-45" vertex="1">
          <mxGeometry y="156" width="320" height="26" as="geometry" />
        </mxCell>
        <mxCell id="nC-UhQALeStEsF1EWLqz-56" value="const struct of_device_id *of_match_table;" style="text;strokeColor=none;fillColor=none;align=left;verticalAlign=top;spacingLeft=4;spacingRight=4;overflow=hidden;rotatable=0;points=[[0,0.5],[1,0.5]];portConstraint=eastwest;" parent="nC-UhQALeStEsF1EWLqz-45" vertex="1">
          <mxGeometry y="182" width="320" height="26" as="geometry" />
        </mxCell>
        <mxCell id="nC-UhQALeStEsF1EWLqz-57" value="const struct acpi_device_id *acpi_match_table;" style="text;strokeColor=none;fillColor=none;align=left;verticalAlign=top;spacingLeft=4;spacingRight=4;overflow=hidden;rotatable=0;points=[[0,0.5],[1,0.5]];portConstraint=eastwest;" parent="nC-UhQALeStEsF1EWLqz-45" vertex="1">
          <mxGeometry y="208" width="320" height="26" as="geometry" />
        </mxCell>
        <mxCell id="nC-UhQALeStEsF1EWLqz-58" value="int (*probe) (struct device *dev);" style="text;strokeColor=none;fillColor=none;align=left;verticalAlign=top;spacingLeft=4;spacingRight=4;overflow=hidden;rotatable=0;points=[[0,0.5],[1,0.5]];portConstraint=eastwest;" parent="nC-UhQALeStEsF1EWLqz-45" vertex="1">
          <mxGeometry y="234" width="320" height="26" as="geometry" />
        </mxCell>
        <mxCell id="nC-UhQALeStEsF1EWLqz-59" value="int (*remove) (struct device *dev);" style="text;strokeColor=none;fillColor=none;align=left;verticalAlign=top;spacingLeft=4;spacingRight=4;overflow=hidden;rotatable=0;points=[[0,0.5],[1,0.5]];portConstraint=eastwest;" parent="nC-UhQALeStEsF1EWLqz-45" vertex="1">
          <mxGeometry y="260" width="320" height="26" as="geometry" />
        </mxCell>
        <mxCell id="nC-UhQALeStEsF1EWLqz-60" value="void (*shutdown) (struct device *dev);" style="text;strokeColor=none;fillColor=none;align=left;verticalAlign=top;spacingLeft=4;spacingRight=4;overflow=hidden;rotatable=0;points=[[0,0.5],[1,0.5]];portConstraint=eastwest;" parent="nC-UhQALeStEsF1EWLqz-45" vertex="1">
          <mxGeometry y="286" width="320" height="26" as="geometry" />
        </mxCell>
        <mxCell id="nC-UhQALeStEsF1EWLqz-61" value="int (*suspend) (struct device *dev, pm_message_t state);" style="text;strokeColor=none;fillColor=none;align=left;verticalAlign=top;spacingLeft=4;spacingRight=4;overflow=hidden;rotatable=0;points=[[0,0.5],[1,0.5]];portConstraint=eastwest;" parent="nC-UhQALeStEsF1EWLqz-45" vertex="1">
          <mxGeometry y="312" width="320" height="26" as="geometry" />
        </mxCell>
        <mxCell id="nC-UhQALeStEsF1EWLqz-62" value="int (*resume) (struct device *dev);" style="text;strokeColor=none;fillColor=none;align=left;verticalAlign=top;spacingLeft=4;spacingRight=4;overflow=hidden;rotatable=0;points=[[0,0.5],[1,0.5]];portConstraint=eastwest;" parent="nC-UhQALeStEsF1EWLqz-45" vertex="1">
          <mxGeometry y="338" width="320" height="26" as="geometry" />
        </mxCell>
        <mxCell id="nC-UhQALeStEsF1EWLqz-64" value="const struct attribute_group **groups;" style="text;strokeColor=none;fillColor=none;align=left;verticalAlign=top;spacingLeft=4;spacingRight=4;overflow=hidden;rotatable=0;points=[[0,0.5],[1,0.5]];portConstraint=eastwest;" parent="nC-UhQALeStEsF1EWLqz-45" vertex="1">
          <mxGeometry y="364" width="320" height="26" as="geometry" />
        </mxCell>
        <mxCell id="nC-UhQALeStEsF1EWLqz-65" value="const struct dev_pm_ops *pm;" style="text;strokeColor=none;fillColor=none;align=left;verticalAlign=top;spacingLeft=4;spacingRight=4;overflow=hidden;rotatable=0;points=[[0,0.5],[1,0.5]];portConstraint=eastwest;" parent="nC-UhQALeStEsF1EWLqz-45" vertex="1">
          <mxGeometry y="390" width="320" height="26" as="geometry" />
        </mxCell>
        <mxCell id="nC-UhQALeStEsF1EWLqz-66" value="struct driver_private *p;" style="text;strokeColor=none;fillColor=none;align=left;verticalAlign=top;spacingLeft=4;spacingRight=4;overflow=hidden;rotatable=0;points=[[0,0.5],[1,0.5]];portConstraint=eastwest;" parent="nC-UhQALeStEsF1EWLqz-45" vertex="1">
          <mxGeometry y="416" width="320" height="26" as="geometry" />
        </mxCell>
        <mxCell id="nC-UhQALeStEsF1EWLqz-67" value="platform_driver" style="swimlane;fontStyle=0;childLayout=stackLayout;horizontal=1;startSize=26;fillColor=none;horizontalStack=0;resizeParent=1;resizeParentMax=0;resizeLast=0;collapsible=1;marginBottom=0;" parent="1" vertex="1">
          <mxGeometry x="20" y="170" width="350" height="234" as="geometry" />
        </mxCell>
        <mxCell id="nC-UhQALeStEsF1EWLqz-68" value="int (*probe)(struct platform_device *);" style="text;strokeColor=none;fillColor=none;align=left;verticalAlign=top;spacingLeft=4;spacingRight=4;overflow=hidden;rotatable=0;points=[[0,0.5],[1,0.5]];portConstraint=eastwest;" parent="nC-UhQALeStEsF1EWLqz-67" vertex="1">
          <mxGeometry y="26" width="350" height="26" as="geometry" />
        </mxCell>
        <mxCell id="nC-UhQALeStEsF1EWLqz-69" value="int (*remove)(struct platform_device *);" style="text;strokeColor=none;fillColor=none;align=left;verticalAlign=top;spacingLeft=4;spacingRight=4;overflow=hidden;rotatable=0;points=[[0,0.5],[1,0.5]];portConstraint=eastwest;" parent="nC-UhQALeStEsF1EWLqz-67" vertex="1">
          <mxGeometry y="52" width="350" height="26" as="geometry" />
        </mxCell>
        <mxCell id="nC-UhQALeStEsF1EWLqz-70" value="void (*shutdown)(struct platform_device *);" style="text;strokeColor=none;fillColor=none;align=left;verticalAlign=top;spacingLeft=4;spacingRight=4;overflow=hidden;rotatable=0;points=[[0,0.5],[1,0.5]];portConstraint=eastwest;" parent="nC-UhQALeStEsF1EWLqz-67" vertex="1">
          <mxGeometry y="78" width="350" height="26" as="geometry" />
        </mxCell>
        <mxCell id="nC-UhQALeStEsF1EWLqz-71" value="int (*suspend)(struct platform_device *, pm_message_t state);" style="text;strokeColor=none;fillColor=none;align=left;verticalAlign=top;spacingLeft=4;spacingRight=4;overflow=hidden;rotatable=0;points=[[0,0.5],[1,0.5]];portConstraint=eastwest;" parent="nC-UhQALeStEsF1EWLqz-67" vertex="1">
          <mxGeometry y="104" width="350" height="26" as="geometry" />
        </mxCell>
        <mxCell id="nC-UhQALeStEsF1EWLqz-72" value="int (*resume)(struct platform_device *);" style="text;strokeColor=none;fillColor=none;align=left;verticalAlign=top;spacingLeft=4;spacingRight=4;overflow=hidden;rotatable=0;points=[[0,0.5],[1,0.5]];portConstraint=eastwest;" parent="nC-UhQALeStEsF1EWLqz-67" vertex="1">
          <mxGeometry y="130" width="350" height="26" as="geometry" />
        </mxCell>
        <mxCell id="nC-UhQALeStEsF1EWLqz-73" value="struct device_driver driver;" style="text;strokeColor=none;fillColor=none;align=left;verticalAlign=top;spacingLeft=4;spacingRight=4;overflow=hidden;rotatable=0;points=[[0,0.5],[1,0.5]];portConstraint=eastwest;" parent="nC-UhQALeStEsF1EWLqz-67" vertex="1">
          <mxGeometry y="156" width="350" height="26" as="geometry" />
        </mxCell>
        <mxCell id="nC-UhQALeStEsF1EWLqz-74" value="const struct platform_device_id *id_table;" style="text;strokeColor=none;fillColor=none;align=left;verticalAlign=top;spacingLeft=4;spacingRight=4;overflow=hidden;rotatable=0;points=[[0,0.5],[1,0.5]];portConstraint=eastwest;" parent="nC-UhQALeStEsF1EWLqz-67" vertex="1">
          <mxGeometry y="182" width="350" height="26" as="geometry" />
        </mxCell>
        <mxCell id="nC-UhQALeStEsF1EWLqz-75" value="bool prevent_deferred_probe;" style="text;strokeColor=none;fillColor=none;align=left;verticalAlign=top;spacingLeft=4;spacingRight=4;overflow=hidden;rotatable=0;points=[[0,0.5],[1,0.5]];portConstraint=eastwest;" parent="nC-UhQALeStEsF1EWLqz-67" vertex="1">
          <mxGeometry y="208" width="350" height="26" as="geometry" />
        </mxCell>
        <mxCell id="--r60nrAQB_nMp80lIBW-3" value="Extends" style="endArrow=block;endSize=16;endFill=0;html=1;rounded=0;entryX=0.006;entryY=0.016;entryDx=0;entryDy=0;entryPerimeter=0;exitX=1;exitY=0.5;exitDx=0;exitDy=0;" parent="1" source="nC-UhQALeStEsF1EWLqz-73" target="nC-UhQALeStEsF1EWLqz-45" edge="1">
          <mxGeometry width="160" relative="1" as="geometry">
            <mxPoint x="370" y="340" as="sourcePoint" />
            <mxPoint x="530" y="340" as="targetPoint" />
          </mxGeometry>
        </mxCell>
        <mxCell id="--r60nrAQB_nMp80lIBW-8" value="dev_pm_ops" style="swimlane;fontStyle=0;childLayout=stackLayout;horizontal=1;startSize=26;fillColor=none;horizontalStack=0;resizeParent=1;resizeParentMax=0;resizeLast=0;collapsible=1;marginBottom=0;" parent="1" vertex="1">
          <mxGeometry x="970" y="10" width="290" height="624" as="geometry" />
        </mxCell>
        <mxCell id="--r60nrAQB_nMp80lIBW-9" value="int (*prepare)(struct device *dev);" style="text;strokeColor=none;fillColor=none;align=left;verticalAlign=top;spacingLeft=4;spacingRight=4;overflow=hidden;rotatable=0;points=[[0,0.5],[1,0.5]];portConstraint=eastwest;" parent="--r60nrAQB_nMp80lIBW-8" vertex="1">
          <mxGeometry y="26" width="290" height="26" as="geometry" />
        </mxCell>
        <mxCell id="--r60nrAQB_nMp80lIBW-10" value="void (*complete)(struct device *dev);" style="text;strokeColor=none;fillColor=none;align=left;verticalAlign=top;spacingLeft=4;spacingRight=4;overflow=hidden;rotatable=0;points=[[0,0.5],[1,0.5]];portConstraint=eastwest;" parent="--r60nrAQB_nMp80lIBW-8" vertex="1">
          <mxGeometry y="52" width="290" height="26" as="geometry" />
        </mxCell>
        <mxCell id="--r60nrAQB_nMp80lIBW-11" value="int (*suspend)(struct device *dev);" style="text;strokeColor=none;fillColor=none;align=left;verticalAlign=top;spacingLeft=4;spacingRight=4;overflow=hidden;rotatable=0;points=[[0,0.5],[1,0.5]];portConstraint=eastwest;" parent="--r60nrAQB_nMp80lIBW-8" vertex="1">
          <mxGeometry y="78" width="290" height="26" as="geometry" />
        </mxCell>
        <mxCell id="--r60nrAQB_nMp80lIBW-12" value="int (*resume)(struct device *dev);" style="text;strokeColor=none;fillColor=none;align=left;verticalAlign=top;spacingLeft=4;spacingRight=4;overflow=hidden;rotatable=0;points=[[0,0.5],[1,0.5]];portConstraint=eastwest;" parent="--r60nrAQB_nMp80lIBW-8" vertex="1">
          <mxGeometry y="104" width="290" height="26" as="geometry" />
        </mxCell>
        <mxCell id="--r60nrAQB_nMp80lIBW-13" value="int (*freeze)(struct device *dev);" style="text;strokeColor=none;fillColor=none;align=left;verticalAlign=top;spacingLeft=4;spacingRight=4;overflow=hidden;rotatable=0;points=[[0,0.5],[1,0.5]];portConstraint=eastwest;" parent="--r60nrAQB_nMp80lIBW-8" vertex="1">
          <mxGeometry y="130" width="290" height="26" as="geometry" />
        </mxCell>
        <mxCell id="--r60nrAQB_nMp80lIBW-14" value="int (*thaw)(struct device *dev);" style="text;strokeColor=none;fillColor=none;align=left;verticalAlign=top;spacingLeft=4;spacingRight=4;overflow=hidden;rotatable=0;points=[[0,0.5],[1,0.5]];portConstraint=eastwest;" parent="--r60nrAQB_nMp80lIBW-8" vertex="1">
          <mxGeometry y="156" width="290" height="26" as="geometry" />
        </mxCell>
        <mxCell id="--r60nrAQB_nMp80lIBW-15" value="int (*poweroff)(struct device *dev);" style="text;strokeColor=none;fillColor=none;align=left;verticalAlign=top;spacingLeft=4;spacingRight=4;overflow=hidden;rotatable=0;points=[[0,0.5],[1,0.5]];portConstraint=eastwest;" parent="--r60nrAQB_nMp80lIBW-8" vertex="1">
          <mxGeometry y="182" width="290" height="26" as="geometry" />
        </mxCell>
        <mxCell id="--r60nrAQB_nMp80lIBW-16" value="int (*restore)(struct device *dev);" style="text;strokeColor=none;fillColor=none;align=left;verticalAlign=top;spacingLeft=4;spacingRight=4;overflow=hidden;rotatable=0;points=[[0,0.5],[1,0.5]];portConstraint=eastwest;" parent="--r60nrAQB_nMp80lIBW-8" vertex="1">
          <mxGeometry y="208" width="290" height="26" as="geometry" />
        </mxCell>
        <mxCell id="--r60nrAQB_nMp80lIBW-17" value="int (*suspend_late)(struct device *dev);" style="text;strokeColor=none;fillColor=none;align=left;verticalAlign=top;spacingLeft=4;spacingRight=4;overflow=hidden;rotatable=0;points=[[0,0.5],[1,0.5]];portConstraint=eastwest;" parent="--r60nrAQB_nMp80lIBW-8" vertex="1">
          <mxGeometry y="234" width="290" height="26" as="geometry" />
        </mxCell>
        <mxCell id="--r60nrAQB_nMp80lIBW-18" value="int (*resume_early)(struct device *dev);" style="text;strokeColor=none;fillColor=none;align=left;verticalAlign=top;spacingLeft=4;spacingRight=4;overflow=hidden;rotatable=0;points=[[0,0.5],[1,0.5]];portConstraint=eastwest;" parent="--r60nrAQB_nMp80lIBW-8" vertex="1">
          <mxGeometry y="260" width="290" height="26" as="geometry" />
        </mxCell>
        <mxCell id="--r60nrAQB_nMp80lIBW-19" value="int (*freeze_late)(struct device *dev);" style="text;strokeColor=none;fillColor=none;align=left;verticalAlign=top;spacingLeft=4;spacingRight=4;overflow=hidden;rotatable=0;points=[[0,0.5],[1,0.5]];portConstraint=eastwest;" parent="--r60nrAQB_nMp80lIBW-8" vertex="1">
          <mxGeometry y="286" width="290" height="26" as="geometry" />
        </mxCell>
        <mxCell id="--r60nrAQB_nMp80lIBW-20" value="int (*thaw_early)(struct device *dev);" style="text;strokeColor=none;fillColor=none;align=left;verticalAlign=top;spacingLeft=4;spacingRight=4;overflow=hidden;rotatable=0;points=[[0,0.5],[1,0.5]];portConstraint=eastwest;" parent="--r60nrAQB_nMp80lIBW-8" vertex="1">
          <mxGeometry y="312" width="290" height="26" as="geometry" />
        </mxCell>
        <mxCell id="--r60nrAQB_nMp80lIBW-21" value="int (*poweroff_late)(struct device *dev);" style="text;strokeColor=none;fillColor=none;align=left;verticalAlign=top;spacingLeft=4;spacingRight=4;overflow=hidden;rotatable=0;points=[[0,0.5],[1,0.5]];portConstraint=eastwest;" parent="--r60nrAQB_nMp80lIBW-8" vertex="1">
          <mxGeometry y="338" width="290" height="26" as="geometry" />
        </mxCell>
        <mxCell id="--r60nrAQB_nMp80lIBW-22" value="int (*restore_early)(struct device *dev);" style="text;strokeColor=none;fillColor=none;align=left;verticalAlign=top;spacingLeft=4;spacingRight=4;overflow=hidden;rotatable=0;points=[[0,0.5],[1,0.5]];portConstraint=eastwest;" parent="--r60nrAQB_nMp80lIBW-8" vertex="1">
          <mxGeometry y="364" width="290" height="26" as="geometry" />
        </mxCell>
        <mxCell id="--r60nrAQB_nMp80lIBW-23" value="int (*suspend_noirq)(struct device *dev);" style="text;strokeColor=none;fillColor=none;align=left;verticalAlign=top;spacingLeft=4;spacingRight=4;overflow=hidden;rotatable=0;points=[[0,0.5],[1,0.5]];portConstraint=eastwest;" parent="--r60nrAQB_nMp80lIBW-8" vertex="1">
          <mxGeometry y="390" width="290" height="26" as="geometry" />
        </mxCell>
        <mxCell id="--r60nrAQB_nMp80lIBW-24" value="int (*resume_noirq)(struct device *dev);" style="text;strokeColor=none;fillColor=none;align=left;verticalAlign=top;spacingLeft=4;spacingRight=4;overflow=hidden;rotatable=0;points=[[0,0.5],[1,0.5]];portConstraint=eastwest;" parent="--r60nrAQB_nMp80lIBW-8" vertex="1">
          <mxGeometry y="416" width="290" height="26" as="geometry" />
        </mxCell>
        <mxCell id="--r60nrAQB_nMp80lIBW-25" value="int (*freeze_noirq)(struct device *dev);" style="text;strokeColor=none;fillColor=none;align=left;verticalAlign=top;spacingLeft=4;spacingRight=4;overflow=hidden;rotatable=0;points=[[0,0.5],[1,0.5]];portConstraint=eastwest;" parent="--r60nrAQB_nMp80lIBW-8" vertex="1">
          <mxGeometry y="442" width="290" height="26" as="geometry" />
        </mxCell>
        <mxCell id="--r60nrAQB_nMp80lIBW-26" value="int (*thaw_noirq)(struct device *dev);" style="text;strokeColor=none;fillColor=none;align=left;verticalAlign=top;spacingLeft=4;spacingRight=4;overflow=hidden;rotatable=0;points=[[0,0.5],[1,0.5]];portConstraint=eastwest;" parent="--r60nrAQB_nMp80lIBW-8" vertex="1">
          <mxGeometry y="468" width="290" height="26" as="geometry" />
        </mxCell>
        <mxCell id="--r60nrAQB_nMp80lIBW-27" value="int (*poweroff_noirq)(struct device *dev);" style="text;strokeColor=none;fillColor=none;align=left;verticalAlign=top;spacingLeft=4;spacingRight=4;overflow=hidden;rotatable=0;points=[[0,0.5],[1,0.5]];portConstraint=eastwest;" parent="--r60nrAQB_nMp80lIBW-8" vertex="1">
          <mxGeometry y="494" width="290" height="26" as="geometry" />
        </mxCell>
        <mxCell id="--r60nrAQB_nMp80lIBW-28" value="int (*restore_noirq)(struct device *dev);" style="text;strokeColor=none;fillColor=none;align=left;verticalAlign=top;spacingLeft=4;spacingRight=4;overflow=hidden;rotatable=0;points=[[0,0.5],[1,0.5]];portConstraint=eastwest;" parent="--r60nrAQB_nMp80lIBW-8" vertex="1">
          <mxGeometry y="520" width="290" height="26" as="geometry" />
        </mxCell>
        <mxCell id="--r60nrAQB_nMp80lIBW-29" value="int (*runtime_suspend)(struct device *dev);" style="text;strokeColor=none;fillColor=none;align=left;verticalAlign=top;spacingLeft=4;spacingRight=4;overflow=hidden;rotatable=0;points=[[0,0.5],[1,0.5]];portConstraint=eastwest;" parent="--r60nrAQB_nMp80lIBW-8" vertex="1">
          <mxGeometry y="546" width="290" height="26" as="geometry" />
        </mxCell>
        <mxCell id="--r60nrAQB_nMp80lIBW-30" value="int (*runtime_resume)(struct device *dev);" style="text;strokeColor=none;fillColor=none;align=left;verticalAlign=top;spacingLeft=4;spacingRight=4;overflow=hidden;rotatable=0;points=[[0,0.5],[1,0.5]];portConstraint=eastwest;" parent="--r60nrAQB_nMp80lIBW-8" vertex="1">
          <mxGeometry y="572" width="290" height="26" as="geometry" />
        </mxCell>
        <mxCell id="--r60nrAQB_nMp80lIBW-31" value="int (*runtime_idle)(struct device *dev);" style="text;strokeColor=none;fillColor=none;align=left;verticalAlign=top;spacingLeft=4;spacingRight=4;overflow=hidden;rotatable=0;points=[[0,0.5],[1,0.5]];portConstraint=eastwest;" parent="--r60nrAQB_nMp80lIBW-8" vertex="1">
          <mxGeometry y="598" width="290" height="26" as="geometry" />
        </mxCell>
        <mxCell id="--r60nrAQB_nMp80lIBW-34" value="driver_private" style="swimlane;fontStyle=0;childLayout=stackLayout;horizontal=1;startSize=26;fillColor=none;horizontalStack=0;resizeParent=1;resizeParentMax=0;resizeLast=0;collapsible=1;marginBottom=0;" parent="1" vertex="1">
          <mxGeometry x="750" y="600" width="190" height="156" as="geometry" />
        </mxCell>
        <mxCell id="--r60nrAQB_nMp80lIBW-35" value="struct kobject kobj;" style="text;strokeColor=none;fillColor=none;align=left;verticalAlign=top;spacingLeft=4;spacingRight=4;overflow=hidden;rotatable=0;points=[[0,0.5],[1,0.5]];portConstraint=eastwest;" parent="--r60nrAQB_nMp80lIBW-34" vertex="1">
          <mxGeometry y="26" width="190" height="26" as="geometry" />
        </mxCell>
        <mxCell id="--r60nrAQB_nMp80lIBW-36" value="struct klist klist_devices;" style="text;strokeColor=none;fillColor=none;align=left;verticalAlign=top;spacingLeft=4;spacingRight=4;overflow=hidden;rotatable=0;points=[[0,0.5],[1,0.5]];portConstraint=eastwest;" parent="--r60nrAQB_nMp80lIBW-34" vertex="1">
          <mxGeometry y="52" width="190" height="26" as="geometry" />
        </mxCell>
        <mxCell id="--r60nrAQB_nMp80lIBW-37" value="struct klist_node knode_bus;" style="text;strokeColor=none;fillColor=none;align=left;verticalAlign=top;spacingLeft=4;spacingRight=4;overflow=hidden;rotatable=0;points=[[0,0.5],[1,0.5]];portConstraint=eastwest;" parent="--r60nrAQB_nMp80lIBW-34" vertex="1">
          <mxGeometry y="78" width="190" height="26" as="geometry" />
        </mxCell>
        <mxCell id="--r60nrAQB_nMp80lIBW-38" value="struct module_kobject *mkobj;" style="text;strokeColor=none;fillColor=none;align=left;verticalAlign=top;spacingLeft=4;spacingRight=4;overflow=hidden;rotatable=0;points=[[0,0.5],[1,0.5]];portConstraint=eastwest;" parent="--r60nrAQB_nMp80lIBW-34" vertex="1">
          <mxGeometry y="104" width="190" height="26" as="geometry" />
        </mxCell>
        <mxCell id="--r60nrAQB_nMp80lIBW-39" value="struct device_driver *driver;" style="text;strokeColor=none;fillColor=none;align=left;verticalAlign=top;spacingLeft=4;spacingRight=4;overflow=hidden;rotatable=0;points=[[0,0.5],[1,0.5]];portConstraint=eastwest;" parent="--r60nrAQB_nMp80lIBW-34" vertex="1">
          <mxGeometry y="130" width="190" height="26" as="geometry" />
        </mxCell>
        <mxCell id="--r60nrAQB_nMp80lIBW-42" value="pm" style="endArrow=block;endFill=1;html=1;edgeStyle=orthogonalEdgeStyle;align=left;verticalAlign=top;rounded=0;" parent="1" source="nC-UhQALeStEsF1EWLqz-65" target="--r60nrAQB_nMp80lIBW-8" edge="1">
          <mxGeometry x="-1" relative="1" as="geometry">
            <mxPoint x="770" y="480" as="sourcePoint" />
            <mxPoint x="930" y="480" as="targetPoint" />
          </mxGeometry>
        </mxCell>
        <mxCell id="--r60nrAQB_nMp80lIBW-43" value="1" style="edgeLabel;resizable=0;html=1;align=left;verticalAlign=bottom;" parent="--r60nrAQB_nMp80lIBW-42" connectable="0" vertex="1">
          <mxGeometry x="-1" relative="1" as="geometry" />
        </mxCell>
        <mxCell id="--r60nrAQB_nMp80lIBW-44" value="p" style="endArrow=block;endFill=1;html=1;edgeStyle=orthogonalEdgeStyle;align=left;verticalAlign=top;rounded=0;entryX=0.625;entryY=-0.012;entryDx=0;entryDy=0;entryPerimeter=0;" parent="1" target="--r60nrAQB_nMp80lIBW-34" edge="1">
          <mxGeometry x="-1" relative="1" as="geometry">
            <mxPoint x="790" y="490" as="sourcePoint" />
            <mxPoint x="950" y="490" as="targetPoint" />
          </mxGeometry>
        </mxCell>
        <mxCell id="--r60nrAQB_nMp80lIBW-45" value="1" style="edgeLabel;resizable=0;html=1;align=left;verticalAlign=bottom;" parent="--r60nrAQB_nMp80lIBW-44" connectable="0" vertex="1">
          <mxGeometry x="-1" relative="1" as="geometry" />
        </mxCell>
        <mxCell id="--r60nrAQB_nMp80lIBW-46" value="driver" style="endArrow=block;endFill=1;html=1;edgeStyle=orthogonalEdgeStyle;align=left;verticalAlign=top;rounded=0;" parent="1" target="nC-UhQALeStEsF1EWLqz-45" edge="1">
          <mxGeometry x="-1" relative="1" as="geometry">
            <mxPoint x="940" y="740" as="sourcePoint" />
            <mxPoint x="1100" y="740" as="targetPoint" />
          </mxGeometry>
        </mxCell>
        <mxCell id="--r60nrAQB_nMp80lIBW-47" value="1" style="edgeLabel;resizable=0;html=1;align=left;verticalAlign=bottom;" parent="--r60nrAQB_nMp80lIBW-46" connectable="0" vertex="1">
          <mxGeometry x="-1" relative="1" as="geometry" />
        </mxCell>
        <mxCell id="--r60nrAQB_nMp80lIBW-61" value="bus_type" style="swimlane;fontStyle=0;childLayout=stackLayout;horizontal=1;startSize=26;fillColor=none;horizontalStack=0;resizeParent=1;resizeParentMax=0;resizeLast=0;collapsible=1;marginBottom=0;" parent="1" vertex="1">
          <mxGeometry x="670" y="-620" width="360" height="546" as="geometry" />
        </mxCell>
        <mxCell id="--r60nrAQB_nMp80lIBW-62" value="const char  *name;" style="text;strokeColor=none;fillColor=none;align=left;verticalAlign=top;spacingLeft=4;spacingRight=4;overflow=hidden;rotatable=0;points=[[0,0.5],[1,0.5]];portConstraint=eastwest;" parent="--r60nrAQB_nMp80lIBW-61" vertex="1">
          <mxGeometry y="26" width="360" height="26" as="geometry" />
        </mxCell>
        <mxCell id="--r60nrAQB_nMp80lIBW-63" value="const char  *dev_name;" style="text;strokeColor=none;fillColor=none;align=left;verticalAlign=top;spacingLeft=4;spacingRight=4;overflow=hidden;rotatable=0;points=[[0,0.5],[1,0.5]];portConstraint=eastwest;" parent="--r60nrAQB_nMp80lIBW-61" vertex="1">
          <mxGeometry y="52" width="360" height="26" as="geometry" />
        </mxCell>
        <mxCell id="--r60nrAQB_nMp80lIBW-64" value="struct device  *dev_root;" style="text;strokeColor=none;fillColor=none;align=left;verticalAlign=top;spacingLeft=4;spacingRight=4;overflow=hidden;rotatable=0;points=[[0,0.5],[1,0.5]];portConstraint=eastwest;" parent="--r60nrAQB_nMp80lIBW-61" vertex="1">
          <mxGeometry y="78" width="360" height="26" as="geometry" />
        </mxCell>
        <mxCell id="--r60nrAQB_nMp80lIBW-65" value="struct device_attribute *dev_attrs;" style="text;strokeColor=none;fillColor=none;align=left;verticalAlign=top;spacingLeft=4;spacingRight=4;overflow=hidden;rotatable=0;points=[[0,0.5],[1,0.5]];portConstraint=eastwest;" parent="--r60nrAQB_nMp80lIBW-61" vertex="1">
          <mxGeometry y="104" width="360" height="26" as="geometry" />
        </mxCell>
        <mxCell id="--r60nrAQB_nMp80lIBW-66" value="const struct attribute_group **bus_groups;" style="text;strokeColor=none;fillColor=none;align=left;verticalAlign=top;spacingLeft=4;spacingRight=4;overflow=hidden;rotatable=0;points=[[0,0.5],[1,0.5]];portConstraint=eastwest;" parent="--r60nrAQB_nMp80lIBW-61" vertex="1">
          <mxGeometry y="130" width="360" height="26" as="geometry" />
        </mxCell>
        <mxCell id="--r60nrAQB_nMp80lIBW-67" value="const struct attribute_group **dev_groups;" style="text;strokeColor=none;fillColor=none;align=left;verticalAlign=top;spacingLeft=4;spacingRight=4;overflow=hidden;rotatable=0;points=[[0,0.5],[1,0.5]];portConstraint=eastwest;" parent="--r60nrAQB_nMp80lIBW-61" vertex="1">
          <mxGeometry y="156" width="360" height="26" as="geometry" />
        </mxCell>
        <mxCell id="--r60nrAQB_nMp80lIBW-68" value="const struct attribute_group **drv_groups;" style="text;strokeColor=none;fillColor=none;align=left;verticalAlign=top;spacingLeft=4;spacingRight=4;overflow=hidden;rotatable=0;points=[[0,0.5],[1,0.5]];portConstraint=eastwest;" parent="--r60nrAQB_nMp80lIBW-61" vertex="1">
          <mxGeometry y="182" width="360" height="26" as="geometry" />
        </mxCell>
        <mxCell id="--r60nrAQB_nMp80lIBW-69" value="int (*match)(struct device *dev, struct device_driver *drv);" style="text;strokeColor=none;fillColor=none;align=left;verticalAlign=top;spacingLeft=4;spacingRight=4;overflow=hidden;rotatable=0;points=[[0,0.5],[1,0.5]];portConstraint=eastwest;" parent="--r60nrAQB_nMp80lIBW-61" vertex="1">
          <mxGeometry y="208" width="360" height="26" as="geometry" />
        </mxCell>
        <mxCell id="--r60nrAQB_nMp80lIBW-70" value="int (*uevent)(struct device *dev, struct kobj_uevent_env *env);" style="text;strokeColor=none;fillColor=none;align=left;verticalAlign=top;spacingLeft=4;spacingRight=4;overflow=hidden;rotatable=0;points=[[0,0.5],[1,0.5]];portConstraint=eastwest;" parent="--r60nrAQB_nMp80lIBW-61" vertex="1">
          <mxGeometry y="234" width="360" height="26" as="geometry" />
        </mxCell>
        <mxCell id="--r60nrAQB_nMp80lIBW-71" value="int (*probe)(struct device *dev);" style="text;strokeColor=none;fillColor=none;align=left;verticalAlign=top;spacingLeft=4;spacingRight=4;overflow=hidden;rotatable=0;points=[[0,0.5],[1,0.5]];portConstraint=eastwest;" parent="--r60nrAQB_nMp80lIBW-61" vertex="1">
          <mxGeometry y="260" width="360" height="26" as="geometry" />
        </mxCell>
        <mxCell id="--r60nrAQB_nMp80lIBW-72" value="int (*remove)(struct device *dev);" style="text;strokeColor=none;fillColor=none;align=left;verticalAlign=top;spacingLeft=4;spacingRight=4;overflow=hidden;rotatable=0;points=[[0,0.5],[1,0.5]];portConstraint=eastwest;" parent="--r60nrAQB_nMp80lIBW-61" vertex="1">
          <mxGeometry y="286" width="360" height="26" as="geometry" />
        </mxCell>
        <mxCell id="--r60nrAQB_nMp80lIBW-73" value="void (*shutdown)(struct device *dev);" style="text;strokeColor=none;fillColor=none;align=left;verticalAlign=top;spacingLeft=4;spacingRight=4;overflow=hidden;rotatable=0;points=[[0,0.5],[1,0.5]];portConstraint=eastwest;" parent="--r60nrAQB_nMp80lIBW-61" vertex="1">
          <mxGeometry y="312" width="360" height="26" as="geometry" />
        </mxCell>
        <mxCell id="--r60nrAQB_nMp80lIBW-74" value="int (*online)(struct device *dev);" style="text;strokeColor=none;fillColor=none;align=left;verticalAlign=top;spacingLeft=4;spacingRight=4;overflow=hidden;rotatable=0;points=[[0,0.5],[1,0.5]];portConstraint=eastwest;" parent="--r60nrAQB_nMp80lIBW-61" vertex="1">
          <mxGeometry y="338" width="360" height="26" as="geometry" />
        </mxCell>
        <mxCell id="--r60nrAQB_nMp80lIBW-75" value="int (*offline)(struct device *dev);" style="text;strokeColor=none;fillColor=none;align=left;verticalAlign=top;spacingLeft=4;spacingRight=4;overflow=hidden;rotatable=0;points=[[0,0.5],[1,0.5]];portConstraint=eastwest;" parent="--r60nrAQB_nMp80lIBW-61" vertex="1">
          <mxGeometry y="364" width="360" height="26" as="geometry" />
        </mxCell>
        <mxCell id="--r60nrAQB_nMp80lIBW-76" value="int (*suspend)(struct device *dev, pm_message_t state);" style="text;strokeColor=none;fillColor=none;align=left;verticalAlign=top;spacingLeft=4;spacingRight=4;overflow=hidden;rotatable=0;points=[[0,0.5],[1,0.5]];portConstraint=eastwest;" parent="--r60nrAQB_nMp80lIBW-61" vertex="1">
          <mxGeometry y="390" width="360" height="26" as="geometry" />
        </mxCell>
        <mxCell id="--r60nrAQB_nMp80lIBW-77" value="int (*resume)(struct device *dev);" style="text;strokeColor=none;fillColor=none;align=left;verticalAlign=top;spacingLeft=4;spacingRight=4;overflow=hidden;rotatable=0;points=[[0,0.5],[1,0.5]];portConstraint=eastwest;" parent="--r60nrAQB_nMp80lIBW-61" vertex="1">
          <mxGeometry y="416" width="360" height="26" as="geometry" />
        </mxCell>
        <mxCell id="--r60nrAQB_nMp80lIBW-78" value="const struct dev_pm_ops *pm;" style="text;strokeColor=none;fillColor=none;align=left;verticalAlign=top;spacingLeft=4;spacingRight=4;overflow=hidden;rotatable=0;points=[[0,0.5],[1,0.5]];portConstraint=eastwest;" parent="--r60nrAQB_nMp80lIBW-61" vertex="1">
          <mxGeometry y="442" width="360" height="26" as="geometry" />
        </mxCell>
        <mxCell id="--r60nrAQB_nMp80lIBW-79" value="const struct iommu_ops *iommu_ops;" style="text;strokeColor=none;fillColor=none;align=left;verticalAlign=top;spacingLeft=4;spacingRight=4;overflow=hidden;rotatable=0;points=[[0,0.5],[1,0.5]];portConstraint=eastwest;" parent="--r60nrAQB_nMp80lIBW-61" vertex="1">
          <mxGeometry y="468" width="360" height="26" as="geometry" />
        </mxCell>
        <mxCell id="--r60nrAQB_nMp80lIBW-80" value="struct subsys_private *p;" style="text;strokeColor=none;fillColor=none;align=left;verticalAlign=top;spacingLeft=4;spacingRight=4;overflow=hidden;rotatable=0;points=[[0,0.5],[1,0.5]];portConstraint=eastwest;" parent="--r60nrAQB_nMp80lIBW-61" vertex="1">
          <mxGeometry y="494" width="360" height="26" as="geometry" />
        </mxCell>
        <mxCell id="--r60nrAQB_nMp80lIBW-81" value="struct lock_class_key lock_key;" style="text;strokeColor=none;fillColor=none;align=left;verticalAlign=top;spacingLeft=4;spacingRight=4;overflow=hidden;rotatable=0;points=[[0,0.5],[1,0.5]];portConstraint=eastwest;" parent="--r60nrAQB_nMp80lIBW-61" vertex="1">
          <mxGeometry y="520" width="360" height="26" as="geometry" />
        </mxCell>
        <mxCell id="--r60nrAQB_nMp80lIBW-85" value="Extends" style="endArrow=block;endSize=16;endFill=0;html=1;rounded=0;" parent="1" target="--r60nrAQB_nMp80lIBW-61" edge="1">
          <mxGeometry width="160" relative="1" as="geometry">
            <mxPoint x="790" y="130" as="sourcePoint" />
            <mxPoint x="950" y="130" as="targetPoint" />
          </mxGeometry>
        </mxCell>
        <mxCell id="--r60nrAQB_nMp80lIBW-88" value="pm" style="endArrow=block;endFill=1;html=1;edgeStyle=orthogonalEdgeStyle;align=left;verticalAlign=top;rounded=0;entryX=0.596;entryY=-0.004;entryDx=0;entryDy=0;entryPerimeter=0;" parent="1" target="--r60nrAQB_nMp80lIBW-8" edge="1">
          <mxGeometry x="-1" relative="1" as="geometry">
            <mxPoint x="1030" y="-160" as="sourcePoint" />
            <mxPoint x="1190" y="-160" as="targetPoint" />
          </mxGeometry>
        </mxCell>
        <mxCell id="--r60nrAQB_nMp80lIBW-89" value="1" style="edgeLabel;resizable=0;html=1;align=left;verticalAlign=bottom;" parent="--r60nrAQB_nMp80lIBW-88" connectable="0" vertex="1">
          <mxGeometry x="-1" relative="1" as="geometry" />
        </mxCell>
        <mxCell id="--r60nrAQB_nMp80lIBW-90" value="subsys_private" style="swimlane;fontStyle=0;childLayout=stackLayout;horizontal=1;startSize=26;fillColor=none;horizontalStack=0;resizeParent=1;resizeParentMax=0;resizeLast=0;collapsible=1;marginBottom=0;" parent="1" vertex="1">
          <mxGeometry x="1080" y="-600" width="240" height="338" as="geometry" />
        </mxCell>
        <mxCell id="--r60nrAQB_nMp80lIBW-91" value="struct kset subsys;" style="text;strokeColor=none;fillColor=none;align=left;verticalAlign=top;spacingLeft=4;spacingRight=4;overflow=hidden;rotatable=0;points=[[0,0.5],[1,0.5]];portConstraint=eastwest;" parent="--r60nrAQB_nMp80lIBW-90" vertex="1">
          <mxGeometry y="26" width="240" height="26" as="geometry" />
        </mxCell>
        <mxCell id="--r60nrAQB_nMp80lIBW-92" value="struct kset *devices_kset;" style="text;strokeColor=none;fillColor=none;align=left;verticalAlign=top;spacingLeft=4;spacingRight=4;overflow=hidden;rotatable=0;points=[[0,0.5],[1,0.5]];portConstraint=eastwest;" parent="--r60nrAQB_nMp80lIBW-90" vertex="1">
          <mxGeometry y="52" width="240" height="26" as="geometry" />
        </mxCell>
        <mxCell id="--r60nrAQB_nMp80lIBW-93" value="struct list_head interfaces;" style="text;strokeColor=none;fillColor=none;align=left;verticalAlign=top;spacingLeft=4;spacingRight=4;overflow=hidden;rotatable=0;points=[[0,0.5],[1,0.5]];portConstraint=eastwest;" parent="--r60nrAQB_nMp80lIBW-90" vertex="1">
          <mxGeometry y="78" width="240" height="26" as="geometry" />
        </mxCell>
        <mxCell id="--r60nrAQB_nMp80lIBW-94" value="struct mutex mutex;" style="text;strokeColor=none;fillColor=none;align=left;verticalAlign=top;spacingLeft=4;spacingRight=4;overflow=hidden;rotatable=0;points=[[0,0.5],[1,0.5]];portConstraint=eastwest;" parent="--r60nrAQB_nMp80lIBW-90" vertex="1">
          <mxGeometry y="104" width="240" height="26" as="geometry" />
        </mxCell>
        <mxCell id="--r60nrAQB_nMp80lIBW-95" value="struct kset *drivers_kset;" style="text;strokeColor=none;fillColor=none;align=left;verticalAlign=top;spacingLeft=4;spacingRight=4;overflow=hidden;rotatable=0;points=[[0,0.5],[1,0.5]];portConstraint=eastwest;" parent="--r60nrAQB_nMp80lIBW-90" vertex="1">
          <mxGeometry y="130" width="240" height="26" as="geometry" />
        </mxCell>
        <mxCell id="--r60nrAQB_nMp80lIBW-96" value="struct klist klist_devices;" style="text;strokeColor=none;fillColor=none;align=left;verticalAlign=top;spacingLeft=4;spacingRight=4;overflow=hidden;rotatable=0;points=[[0,0.5],[1,0.5]];portConstraint=eastwest;" parent="--r60nrAQB_nMp80lIBW-90" vertex="1">
          <mxGeometry y="156" width="240" height="26" as="geometry" />
        </mxCell>
        <mxCell id="--r60nrAQB_nMp80lIBW-97" value="struct klist klist_drivers;" style="text;strokeColor=none;fillColor=none;align=left;verticalAlign=top;spacingLeft=4;spacingRight=4;overflow=hidden;rotatable=0;points=[[0,0.5],[1,0.5]];portConstraint=eastwest;" parent="--r60nrAQB_nMp80lIBW-90" vertex="1">
          <mxGeometry y="182" width="240" height="26" as="geometry" />
        </mxCell>
        <mxCell id="--r60nrAQB_nMp80lIBW-98" value="struct blocking_notifier_head bus_notifier;" style="text;strokeColor=none;fillColor=none;align=left;verticalAlign=top;spacingLeft=4;spacingRight=4;overflow=hidden;rotatable=0;points=[[0,0.5],[1,0.5]];portConstraint=eastwest;" parent="--r60nrAQB_nMp80lIBW-90" vertex="1">
          <mxGeometry y="208" width="240" height="26" as="geometry" />
        </mxCell>
        <mxCell id="--r60nrAQB_nMp80lIBW-99" value="unsigned int drivers_autoprobe:1;" style="text;strokeColor=none;fillColor=none;align=left;verticalAlign=top;spacingLeft=4;spacingRight=4;overflow=hidden;rotatable=0;points=[[0,0.5],[1,0.5]];portConstraint=eastwest;" parent="--r60nrAQB_nMp80lIBW-90" vertex="1">
          <mxGeometry y="234" width="240" height="26" as="geometry" />
        </mxCell>
        <mxCell id="--r60nrAQB_nMp80lIBW-100" value="struct bus_type *bus;" style="text;strokeColor=none;fillColor=none;align=left;verticalAlign=top;spacingLeft=4;spacingRight=4;overflow=hidden;rotatable=0;points=[[0,0.5],[1,0.5]];portConstraint=eastwest;" parent="--r60nrAQB_nMp80lIBW-90" vertex="1">
          <mxGeometry y="260" width="240" height="26" as="geometry" />
        </mxCell>
        <mxCell id="--r60nrAQB_nMp80lIBW-101" value="struct kset glue_dirs;" style="text;strokeColor=none;fillColor=none;align=left;verticalAlign=top;spacingLeft=4;spacingRight=4;overflow=hidden;rotatable=0;points=[[0,0.5],[1,0.5]];portConstraint=eastwest;" parent="--r60nrAQB_nMp80lIBW-90" vertex="1">
          <mxGeometry y="286" width="240" height="26" as="geometry" />
        </mxCell>
        <mxCell id="--r60nrAQB_nMp80lIBW-102" value="struct class *class;" style="text;strokeColor=none;fillColor=none;align=left;verticalAlign=top;spacingLeft=4;spacingRight=4;overflow=hidden;rotatable=0;points=[[0,0.5],[1,0.5]];portConstraint=eastwest;" parent="--r60nrAQB_nMp80lIBW-90" vertex="1">
          <mxGeometry y="312" width="240" height="26" as="geometry" />
        </mxCell>
        <mxCell id="--r60nrAQB_nMp80lIBW-106" value="p" style="endArrow=block;endFill=1;html=1;edgeStyle=orthogonalEdgeStyle;align=left;verticalAlign=top;rounded=0;entryX=1;entryY=0;entryDx=0;entryDy=0;" parent="1" target="--r60nrAQB_nMp80lIBW-90" edge="1">
          <mxGeometry x="-1" relative="1" as="geometry">
            <mxPoint x="1030" y="-120" as="sourcePoint" />
            <mxPoint x="1190" y="-120" as="targetPoint" />
          </mxGeometry>
        </mxCell>
        <mxCell id="--r60nrAQB_nMp80lIBW-107" value="1" style="edgeLabel;resizable=0;html=1;align=left;verticalAlign=bottom;" parent="--r60nrAQB_nMp80lIBW-106" connectable="0" vertex="1">
          <mxGeometry x="-1" relative="1" as="geometry" />
        </mxCell>
        <mxCell id="--r60nrAQB_nMp80lIBW-108" value="name" style="endArrow=block;endFill=1;html=1;edgeStyle=orthogonalEdgeStyle;align=left;verticalAlign=top;rounded=0;entryX=1;entryY=0;entryDx=0;entryDy=0;" parent="1" target="--r60nrAQB_nMp80lIBW-61" edge="1">
          <mxGeometry x="-1" relative="1" as="geometry">
            <mxPoint x="1320" y="-320" as="sourcePoint" />
            <mxPoint x="1480" y="-320" as="targetPoint" />
          </mxGeometry>
        </mxCell>
        <mxCell id="--r60nrAQB_nMp80lIBW-109" value="1" style="edgeLabel;resizable=0;html=1;align=left;verticalAlign=bottom;" parent="--r60nrAQB_nMp80lIBW-108" connectable="0" vertex="1">
          <mxGeometry x="-1" relative="1" as="geometry" />
        </mxCell>
        <mxCell id="--r60nrAQB_nMp80lIBW-110" value="device" style="swimlane;fontStyle=0;childLayout=stackLayout;horizontal=1;startSize=26;fillColor=none;horizontalStack=0;resizeParent=1;resizeParentMax=0;resizeLast=0;collapsible=1;marginBottom=0;" parent="1" vertex="1">
          <mxGeometry x="550" y="810" width="260" height="1014" as="geometry" />
        </mxCell>
        <mxCell id="--r60nrAQB_nMp80lIBW-111" value="struct device  *parent;" style="text;strokeColor=none;fillColor=none;align=left;verticalAlign=top;spacingLeft=4;spacingRight=4;overflow=hidden;rotatable=0;points=[[0,0.5],[1,0.5]];portConstraint=eastwest;" parent="--r60nrAQB_nMp80lIBW-110" vertex="1">
          <mxGeometry y="26" width="260" height="26" as="geometry" />
        </mxCell>
        <mxCell id="--r60nrAQB_nMp80lIBW-112" value="struct device_private *p;" style="text;strokeColor=none;fillColor=none;align=left;verticalAlign=top;spacingLeft=4;spacingRight=4;overflow=hidden;rotatable=0;points=[[0,0.5],[1,0.5]];portConstraint=eastwest;" parent="--r60nrAQB_nMp80lIBW-110" vertex="1">
          <mxGeometry y="52" width="260" height="26" as="geometry" />
        </mxCell>
        <mxCell id="--r60nrAQB_nMp80lIBW-113" value="struct kobject kobj;" style="text;strokeColor=none;fillColor=none;align=left;verticalAlign=top;spacingLeft=4;spacingRight=4;overflow=hidden;rotatable=0;points=[[0,0.5],[1,0.5]];portConstraint=eastwest;" parent="--r60nrAQB_nMp80lIBW-110" vertex="1">
          <mxGeometry y="78" width="260" height="26" as="geometry" />
        </mxCell>
        <mxCell id="--r60nrAQB_nMp80lIBW-114" value="const char  *init_name;" style="text;strokeColor=none;fillColor=none;align=left;verticalAlign=top;spacingLeft=4;spacingRight=4;overflow=hidden;rotatable=0;points=[[0,0.5],[1,0.5]];portConstraint=eastwest;" parent="--r60nrAQB_nMp80lIBW-110" vertex="1">
          <mxGeometry y="104" width="260" height="26" as="geometry" />
        </mxCell>
        <mxCell id="--r60nrAQB_nMp80lIBW-115" value="const struct device_type *type;" style="text;strokeColor=none;fillColor=none;align=left;verticalAlign=top;spacingLeft=4;spacingRight=4;overflow=hidden;rotatable=0;points=[[0,0.5],[1,0.5]];portConstraint=eastwest;" parent="--r60nrAQB_nMp80lIBW-110" vertex="1">
          <mxGeometry y="130" width="260" height="26" as="geometry" />
        </mxCell>
        <mxCell id="--r60nrAQB_nMp80lIBW-116" value="struct mutex  mutex;" style="text;strokeColor=none;fillColor=none;align=left;verticalAlign=top;spacingLeft=4;spacingRight=4;overflow=hidden;rotatable=0;points=[[0,0.5],[1,0.5]];portConstraint=eastwest;" parent="--r60nrAQB_nMp80lIBW-110" vertex="1">
          <mxGeometry y="156" width="260" height="26" as="geometry" />
        </mxCell>
        <mxCell id="--r60nrAQB_nMp80lIBW-117" value="struct bus_type *bus;" style="text;strokeColor=none;fillColor=none;align=left;verticalAlign=top;spacingLeft=4;spacingRight=4;overflow=hidden;rotatable=0;points=[[0,0.5],[1,0.5]];portConstraint=eastwest;" parent="--r60nrAQB_nMp80lIBW-110" vertex="1">
          <mxGeometry y="182" width="260" height="26" as="geometry" />
        </mxCell>
        <mxCell id="--r60nrAQB_nMp80lIBW-118" value="struct device_driver *driver;" style="text;strokeColor=none;fillColor=none;align=left;verticalAlign=top;spacingLeft=4;spacingRight=4;overflow=hidden;rotatable=0;points=[[0,0.5],[1,0.5]];portConstraint=eastwest;" parent="--r60nrAQB_nMp80lIBW-110" vertex="1">
          <mxGeometry y="208" width="260" height="26" as="geometry" />
        </mxCell>
        <mxCell id="--r60nrAQB_nMp80lIBW-119" value="void  *platform_data;" style="text;strokeColor=none;fillColor=none;align=left;verticalAlign=top;spacingLeft=4;spacingRight=4;overflow=hidden;rotatable=0;points=[[0,0.5],[1,0.5]];portConstraint=eastwest;" parent="--r60nrAQB_nMp80lIBW-110" vertex="1">
          <mxGeometry y="234" width="260" height="26" as="geometry" />
        </mxCell>
        <mxCell id="--r60nrAQB_nMp80lIBW-120" value="void  *driver_data;" style="text;strokeColor=none;fillColor=none;align=left;verticalAlign=top;spacingLeft=4;spacingRight=4;overflow=hidden;rotatable=0;points=[[0,0.5],[1,0.5]];portConstraint=eastwest;" parent="--r60nrAQB_nMp80lIBW-110" vertex="1">
          <mxGeometry y="260" width="260" height="26" as="geometry" />
        </mxCell>
        <mxCell id="--r60nrAQB_nMp80lIBW-121" value="struct dev_pm_info power;" style="text;strokeColor=none;fillColor=none;align=left;verticalAlign=top;spacingLeft=4;spacingRight=4;overflow=hidden;rotatable=0;points=[[0,0.5],[1,0.5]];portConstraint=eastwest;" parent="--r60nrAQB_nMp80lIBW-110" vertex="1">
          <mxGeometry y="286" width="260" height="26" as="geometry" />
        </mxCell>
        <mxCell id="--r60nrAQB_nMp80lIBW-122" value="struct dev_pm_domain *pm_domain;" style="text;strokeColor=none;fillColor=none;align=left;verticalAlign=top;spacingLeft=4;spacingRight=4;overflow=hidden;rotatable=0;points=[[0,0.5],[1,0.5]];portConstraint=eastwest;" parent="--r60nrAQB_nMp80lIBW-110" vertex="1">
          <mxGeometry y="312" width="260" height="26" as="geometry" />
        </mxCell>
        <mxCell id="--r60nrAQB_nMp80lIBW-123" value="struct irq_domain *msi_domain;" style="text;strokeColor=none;fillColor=none;align=left;verticalAlign=top;spacingLeft=4;spacingRight=4;overflow=hidden;rotatable=0;points=[[0,0.5],[1,0.5]];portConstraint=eastwest;" parent="--r60nrAQB_nMp80lIBW-110" vertex="1">
          <mxGeometry y="338" width="260" height="26" as="geometry" />
        </mxCell>
        <mxCell id="--r60nrAQB_nMp80lIBW-124" value="struct dev_pin_info *pins;" style="text;strokeColor=none;fillColor=none;align=left;verticalAlign=top;spacingLeft=4;spacingRight=4;overflow=hidden;rotatable=0;points=[[0,0.5],[1,0.5]];portConstraint=eastwest;" parent="--r60nrAQB_nMp80lIBW-110" vertex="1">
          <mxGeometry y="364" width="260" height="26" as="geometry" />
        </mxCell>
        <mxCell id="--r60nrAQB_nMp80lIBW-125" value="struct list_head msi_list;" style="text;strokeColor=none;fillColor=none;align=left;verticalAlign=top;spacingLeft=4;spacingRight=4;overflow=hidden;rotatable=0;points=[[0,0.5],[1,0.5]];portConstraint=eastwest;" parent="--r60nrAQB_nMp80lIBW-110" vertex="1">
          <mxGeometry y="390" width="260" height="26" as="geometry" />
        </mxCell>
        <mxCell id="--r60nrAQB_nMp80lIBW-126" value="int  numa_node" style="text;strokeColor=none;fillColor=none;align=left;verticalAlign=top;spacingLeft=4;spacingRight=4;overflow=hidden;rotatable=0;points=[[0,0.5],[1,0.5]];portConstraint=eastwest;" parent="--r60nrAQB_nMp80lIBW-110" vertex="1">
          <mxGeometry y="416" width="260" height="26" as="geometry" />
        </mxCell>
        <mxCell id="--r60nrAQB_nMp80lIBW-127" value="u64  *dma_mask;" style="text;strokeColor=none;fillColor=none;align=left;verticalAlign=top;spacingLeft=4;spacingRight=4;overflow=hidden;rotatable=0;points=[[0,0.5],[1,0.5]];portConstraint=eastwest;" parent="--r60nrAQB_nMp80lIBW-110" vertex="1">
          <mxGeometry y="442" width="260" height="26" as="geometry" />
        </mxCell>
        <mxCell id="--r60nrAQB_nMp80lIBW-128" value="u64  coherent_dma_mask;" style="text;strokeColor=none;fillColor=none;align=left;verticalAlign=top;spacingLeft=4;spacingRight=4;overflow=hidden;rotatable=0;points=[[0,0.5],[1,0.5]];portConstraint=eastwest;" parent="--r60nrAQB_nMp80lIBW-110" vertex="1">
          <mxGeometry y="468" width="260" height="26" as="geometry" />
        </mxCell>
        <mxCell id="--r60nrAQB_nMp80lIBW-129" value="unsigned long dma_pfn_offset;" style="text;strokeColor=none;fillColor=none;align=left;verticalAlign=top;spacingLeft=4;spacingRight=4;overflow=hidden;rotatable=0;points=[[0,0.5],[1,0.5]];portConstraint=eastwest;" parent="--r60nrAQB_nMp80lIBW-110" vertex="1">
          <mxGeometry y="494" width="260" height="26" as="geometry" />
        </mxCell>
        <mxCell id="--r60nrAQB_nMp80lIBW-130" value="struct device_dma_parameters *dma_parms;" style="text;strokeColor=none;fillColor=none;align=left;verticalAlign=top;spacingLeft=4;spacingRight=4;overflow=hidden;rotatable=0;points=[[0,0.5],[1,0.5]];portConstraint=eastwest;" parent="--r60nrAQB_nMp80lIBW-110" vertex="1">
          <mxGeometry y="520" width="260" height="26" as="geometry" />
        </mxCell>
        <mxCell id="--r60nrAQB_nMp80lIBW-131" value="struct list_head dma_pools;" style="text;strokeColor=none;fillColor=none;align=left;verticalAlign=top;spacingLeft=4;spacingRight=4;overflow=hidden;rotatable=0;points=[[0,0.5],[1,0.5]];portConstraint=eastwest;" parent="--r60nrAQB_nMp80lIBW-110" vertex="1">
          <mxGeometry y="546" width="260" height="26" as="geometry" />
        </mxCell>
        <mxCell id="--r60nrAQB_nMp80lIBW-132" value="struct dma_coherent_mem *dma_mem;" style="text;strokeColor=none;fillColor=none;align=left;verticalAlign=top;spacingLeft=4;spacingRight=4;overflow=hidden;rotatable=0;points=[[0,0.5],[1,0.5]];portConstraint=eastwest;" parent="--r60nrAQB_nMp80lIBW-110" vertex="1">
          <mxGeometry y="572" width="260" height="26" as="geometry" />
        </mxCell>
        <mxCell id="--r60nrAQB_nMp80lIBW-133" value="struct cma *cma_area;" style="text;strokeColor=none;fillColor=none;align=left;verticalAlign=top;spacingLeft=4;spacingRight=4;overflow=hidden;rotatable=0;points=[[0,0.5],[1,0.5]];portConstraint=eastwest;" parent="--r60nrAQB_nMp80lIBW-110" vertex="1">
          <mxGeometry y="598" width="260" height="26" as="geometry" />
        </mxCell>
        <mxCell id="--r60nrAQB_nMp80lIBW-134" value="struct dev_archdata archdata;" style="text;strokeColor=none;fillColor=none;align=left;verticalAlign=top;spacingLeft=4;spacingRight=4;overflow=hidden;rotatable=0;points=[[0,0.5],[1,0.5]];portConstraint=eastwest;" parent="--r60nrAQB_nMp80lIBW-110" vertex="1">
          <mxGeometry y="624" width="260" height="26" as="geometry" />
        </mxCell>
        <mxCell id="--r60nrAQB_nMp80lIBW-135" value="struct device_node *of_node;" style="text;strokeColor=none;fillColor=none;align=left;verticalAlign=top;spacingLeft=4;spacingRight=4;overflow=hidden;rotatable=0;points=[[0,0.5],[1,0.5]];portConstraint=eastwest;" parent="--r60nrAQB_nMp80lIBW-110" vertex="1">
          <mxGeometry y="650" width="260" height="26" as="geometry" />
        </mxCell>
        <mxCell id="--r60nrAQB_nMp80lIBW-136" value="struct fwnode_handle *fwnode;" style="text;strokeColor=none;fillColor=none;align=left;verticalAlign=top;spacingLeft=4;spacingRight=4;overflow=hidden;rotatable=0;points=[[0,0.5],[1,0.5]];portConstraint=eastwest;" parent="--r60nrAQB_nMp80lIBW-110" vertex="1">
          <mxGeometry y="676" width="260" height="26" as="geometry" />
        </mxCell>
        <mxCell id="--r60nrAQB_nMp80lIBW-137" value="dev_t   devt;" style="text;strokeColor=none;fillColor=none;align=left;verticalAlign=top;spacingLeft=4;spacingRight=4;overflow=hidden;rotatable=0;points=[[0,0.5],[1,0.5]];portConstraint=eastwest;" parent="--r60nrAQB_nMp80lIBW-110" vertex="1">
          <mxGeometry y="702" width="260" height="26" as="geometry" />
        </mxCell>
        <mxCell id="--r60nrAQB_nMp80lIBW-138" value="u32   id;" style="text;strokeColor=none;fillColor=none;align=left;verticalAlign=top;spacingLeft=4;spacingRight=4;overflow=hidden;rotatable=0;points=[[0,0.5],[1,0.5]];portConstraint=eastwest;" parent="--r60nrAQB_nMp80lIBW-110" vertex="1">
          <mxGeometry y="728" width="260" height="26" as="geometry" />
        </mxCell>
        <mxCell id="--r60nrAQB_nMp80lIBW-139" value="spinlock_t  devres_lock;" style="text;strokeColor=none;fillColor=none;align=left;verticalAlign=top;spacingLeft=4;spacingRight=4;overflow=hidden;rotatable=0;points=[[0,0.5],[1,0.5]];portConstraint=eastwest;" parent="--r60nrAQB_nMp80lIBW-110" vertex="1">
          <mxGeometry y="754" width="260" height="26" as="geometry" />
        </mxCell>
        <mxCell id="--r60nrAQB_nMp80lIBW-140" value="struct list_head devres_head;" style="text;strokeColor=none;fillColor=none;align=left;verticalAlign=top;spacingLeft=4;spacingRight=4;overflow=hidden;rotatable=0;points=[[0,0.5],[1,0.5]];portConstraint=eastwest;" parent="--r60nrAQB_nMp80lIBW-110" vertex="1">
          <mxGeometry y="780" width="260" height="26" as="geometry" />
        </mxCell>
        <mxCell id="--r60nrAQB_nMp80lIBW-141" value="struct klist_node knode_class;" style="text;strokeColor=none;fillColor=none;align=left;verticalAlign=top;spacingLeft=4;spacingRight=4;overflow=hidden;rotatable=0;points=[[0,0.5],[1,0.5]];portConstraint=eastwest;" parent="--r60nrAQB_nMp80lIBW-110" vertex="1">
          <mxGeometry y="806" width="260" height="26" as="geometry" />
        </mxCell>
        <mxCell id="--r60nrAQB_nMp80lIBW-142" value="struct class  *class;" style="text;strokeColor=none;fillColor=none;align=left;verticalAlign=top;spacingLeft=4;spacingRight=4;overflow=hidden;rotatable=0;points=[[0,0.5],[1,0.5]];portConstraint=eastwest;" parent="--r60nrAQB_nMp80lIBW-110" vertex="1">
          <mxGeometry y="832" width="260" height="26" as="geometry" />
        </mxCell>
        <mxCell id="--r60nrAQB_nMp80lIBW-143" value="const struct attribute_group **groups;" style="text;strokeColor=none;fillColor=none;align=left;verticalAlign=top;spacingLeft=4;spacingRight=4;overflow=hidden;rotatable=0;points=[[0,0.5],[1,0.5]];portConstraint=eastwest;" parent="--r60nrAQB_nMp80lIBW-110" vertex="1">
          <mxGeometry y="858" width="260" height="26" as="geometry" />
        </mxCell>
        <mxCell id="--r60nrAQB_nMp80lIBW-144" value="void (*release)(struct device *dev);" style="text;strokeColor=none;fillColor=none;align=left;verticalAlign=top;spacingLeft=4;spacingRight=4;overflow=hidden;rotatable=0;points=[[0,0.5],[1,0.5]];portConstraint=eastwest;" parent="--r60nrAQB_nMp80lIBW-110" vertex="1">
          <mxGeometry y="884" width="260" height="26" as="geometry" />
        </mxCell>
        <mxCell id="--r60nrAQB_nMp80lIBW-145" value="struct iommu_group *iommu_group;" style="text;strokeColor=none;fillColor=none;align=left;verticalAlign=top;spacingLeft=4;spacingRight=4;overflow=hidden;rotatable=0;points=[[0,0.5],[1,0.5]];portConstraint=eastwest;" parent="--r60nrAQB_nMp80lIBW-110" vertex="1">
          <mxGeometry y="910" width="260" height="26" as="geometry" />
        </mxCell>
        <mxCell id="--r60nrAQB_nMp80lIBW-146" value="struct iommu_fwspec *iommu_fwspec;" style="text;strokeColor=none;fillColor=none;align=left;verticalAlign=top;spacingLeft=4;spacingRight=4;overflow=hidden;rotatable=0;points=[[0,0.5],[1,0.5]];portConstraint=eastwest;" parent="--r60nrAQB_nMp80lIBW-110" vertex="1">
          <mxGeometry y="936" width="260" height="26" as="geometry" />
        </mxCell>
        <mxCell id="--r60nrAQB_nMp80lIBW-147" value="bool   offline_disabled:1;" style="text;strokeColor=none;fillColor=none;align=left;verticalAlign=top;spacingLeft=4;spacingRight=4;overflow=hidden;rotatable=0;points=[[0,0.5],[1,0.5]];portConstraint=eastwest;" parent="--r60nrAQB_nMp80lIBW-110" vertex="1">
          <mxGeometry y="962" width="260" height="26" as="geometry" />
        </mxCell>
        <mxCell id="--r60nrAQB_nMp80lIBW-148" value="bool   offline:1;" style="text;strokeColor=none;fillColor=none;align=left;verticalAlign=top;spacingLeft=4;spacingRight=4;overflow=hidden;rotatable=0;points=[[0,0.5],[1,0.5]];portConstraint=eastwest;" parent="--r60nrAQB_nMp80lIBW-110" vertex="1">
          <mxGeometry y="988" width="260" height="26" as="geometry" />
        </mxCell>
        <mxCell id="--r60nrAQB_nMp80lIBW-149" value="platform_device" style="swimlane;fontStyle=0;childLayout=stackLayout;horizontal=1;startSize=26;fillColor=none;horizontalStack=0;resizeParent=1;resizeParentMax=0;resizeLast=0;collapsible=1;marginBottom=0;" parent="1" vertex="1">
          <mxGeometry x="150" y="924" width="240" height="286" as="geometry" />
        </mxCell>
        <mxCell id="--r60nrAQB_nMp80lIBW-150" value="const char *name;" style="text;strokeColor=none;fillColor=none;align=left;verticalAlign=top;spacingLeft=4;spacingRight=4;overflow=hidden;rotatable=0;points=[[0,0.5],[1,0.5]];portConstraint=eastwest;" parent="--r60nrAQB_nMp80lIBW-149" vertex="1">
          <mxGeometry y="26" width="240" height="26" as="geometry" />
        </mxCell>
        <mxCell id="--r60nrAQB_nMp80lIBW-151" value="int  id;" style="text;strokeColor=none;fillColor=none;align=left;verticalAlign=top;spacingLeft=4;spacingRight=4;overflow=hidden;rotatable=0;points=[[0,0.5],[1,0.5]];portConstraint=eastwest;" parent="--r60nrAQB_nMp80lIBW-149" vertex="1">
          <mxGeometry y="52" width="240" height="26" as="geometry" />
        </mxCell>
        <mxCell id="--r60nrAQB_nMp80lIBW-152" value="bool  id_auto;" style="text;strokeColor=none;fillColor=none;align=left;verticalAlign=top;spacingLeft=4;spacingRight=4;overflow=hidden;rotatable=0;points=[[0,0.5],[1,0.5]];portConstraint=eastwest;" parent="--r60nrAQB_nMp80lIBW-149" vertex="1">
          <mxGeometry y="78" width="240" height="26" as="geometry" />
        </mxCell>
        <mxCell id="--r60nrAQB_nMp80lIBW-153" value="struct device dev;" style="text;strokeColor=none;fillColor=none;align=left;verticalAlign=top;spacingLeft=4;spacingRight=4;overflow=hidden;rotatable=0;points=[[0,0.5],[1,0.5]];portConstraint=eastwest;" parent="--r60nrAQB_nMp80lIBW-149" vertex="1">
          <mxGeometry y="104" width="240" height="26" as="geometry" />
        </mxCell>
        <mxCell id="--r60nrAQB_nMp80lIBW-154" value="u32  num_resources;" style="text;strokeColor=none;fillColor=none;align=left;verticalAlign=top;spacingLeft=4;spacingRight=4;overflow=hidden;rotatable=0;points=[[0,0.5],[1,0.5]];portConstraint=eastwest;" parent="--r60nrAQB_nMp80lIBW-149" vertex="1">
          <mxGeometry y="130" width="240" height="26" as="geometry" />
        </mxCell>
        <mxCell id="--r60nrAQB_nMp80lIBW-155" value="struct resource *resource;" style="text;strokeColor=none;fillColor=none;align=left;verticalAlign=top;spacingLeft=4;spacingRight=4;overflow=hidden;rotatable=0;points=[[0,0.5],[1,0.5]];portConstraint=eastwest;" parent="--r60nrAQB_nMp80lIBW-149" vertex="1">
          <mxGeometry y="156" width="240" height="26" as="geometry" />
        </mxCell>
        <mxCell id="--r60nrAQB_nMp80lIBW-156" value="const struct platform_device_id *id_entry;" style="text;strokeColor=none;fillColor=none;align=left;verticalAlign=top;spacingLeft=4;spacingRight=4;overflow=hidden;rotatable=0;points=[[0,0.5],[1,0.5]];portConstraint=eastwest;" parent="--r60nrAQB_nMp80lIBW-149" vertex="1">
          <mxGeometry y="182" width="240" height="26" as="geometry" />
        </mxCell>
        <mxCell id="--r60nrAQB_nMp80lIBW-157" value="char *driver_override; " style="text;strokeColor=none;fillColor=none;align=left;verticalAlign=top;spacingLeft=4;spacingRight=4;overflow=hidden;rotatable=0;points=[[0,0.5],[1,0.5]];portConstraint=eastwest;" parent="--r60nrAQB_nMp80lIBW-149" vertex="1">
          <mxGeometry y="208" width="240" height="26" as="geometry" />
        </mxCell>
        <mxCell id="--r60nrAQB_nMp80lIBW-158" value="struct mfd_cell *mfd_cell;" style="text;strokeColor=none;fillColor=none;align=left;verticalAlign=top;spacingLeft=4;spacingRight=4;overflow=hidden;rotatable=0;points=[[0,0.5],[1,0.5]];portConstraint=eastwest;" parent="--r60nrAQB_nMp80lIBW-149" vertex="1">
          <mxGeometry y="234" width="240" height="26" as="geometry" />
        </mxCell>
        <mxCell id="--r60nrAQB_nMp80lIBW-159" value="struct pdev_archdata archdata;" style="text;strokeColor=none;fillColor=none;align=left;verticalAlign=top;spacingLeft=4;spacingRight=4;overflow=hidden;rotatable=0;points=[[0,0.5],[1,0.5]];portConstraint=eastwest;" parent="--r60nrAQB_nMp80lIBW-149" vertex="1">
          <mxGeometry y="260" width="240" height="26" as="geometry" />
        </mxCell>
        <mxCell id="--r60nrAQB_nMp80lIBW-163" value="Extends" style="endArrow=block;endSize=16;endFill=0;html=1;rounded=0;" parent="1" edge="1">
          <mxGeometry width="160" relative="1" as="geometry">
            <mxPoint x="390" y="1040" as="sourcePoint" />
            <mxPoint x="550" y="1040" as="targetPoint" />
          </mxGeometry>
        </mxCell>
        <mxCell id="--r60nrAQB_nMp80lIBW-164" value="device_private" style="swimlane;fontStyle=0;childLayout=stackLayout;horizontal=1;startSize=26;fillColor=none;horizontalStack=0;resizeParent=1;resizeParentMax=0;resizeLast=0;collapsible=1;marginBottom=0;" parent="1" vertex="1">
          <mxGeometry x="979" y="810" width="190" height="182" as="geometry" />
        </mxCell>
        <mxCell id="--r60nrAQB_nMp80lIBW-165" value="struct klist klist_children;" style="text;strokeColor=none;fillColor=none;align=left;verticalAlign=top;spacingLeft=4;spacingRight=4;overflow=hidden;rotatable=0;points=[[0,0.5],[1,0.5]];portConstraint=eastwest;" parent="--r60nrAQB_nMp80lIBW-164" vertex="1">
          <mxGeometry y="26" width="190" height="26" as="geometry" />
        </mxCell>
        <mxCell id="--r60nrAQB_nMp80lIBW-166" value="struct klist_node knode_parent;" style="text;strokeColor=none;fillColor=none;align=left;verticalAlign=top;spacingLeft=4;spacingRight=4;overflow=hidden;rotatable=0;points=[[0,0.5],[1,0.5]];portConstraint=eastwest;" parent="--r60nrAQB_nMp80lIBW-164" vertex="1">
          <mxGeometry y="52" width="190" height="26" as="geometry" />
        </mxCell>
        <mxCell id="--r60nrAQB_nMp80lIBW-167" value="struct klist_node knode_driver;" style="text;strokeColor=none;fillColor=none;align=left;verticalAlign=top;spacingLeft=4;spacingRight=4;overflow=hidden;rotatable=0;points=[[0,0.5],[1,0.5]];portConstraint=eastwest;" parent="--r60nrAQB_nMp80lIBW-164" vertex="1">
          <mxGeometry y="78" width="190" height="26" as="geometry" />
        </mxCell>
        <mxCell id="--r60nrAQB_nMp80lIBW-168" value="struct klist_node knode_bus;" style="text;strokeColor=none;fillColor=none;align=left;verticalAlign=top;spacingLeft=4;spacingRight=4;overflow=hidden;rotatable=0;points=[[0,0.5],[1,0.5]];portConstraint=eastwest;" parent="--r60nrAQB_nMp80lIBW-164" vertex="1">
          <mxGeometry y="104" width="190" height="26" as="geometry" />
        </mxCell>
        <mxCell id="--r60nrAQB_nMp80lIBW-169" value="struct list_head deferred_probe;" style="text;strokeColor=none;fillColor=none;align=left;verticalAlign=top;spacingLeft=4;spacingRight=4;overflow=hidden;rotatable=0;points=[[0,0.5],[1,0.5]];portConstraint=eastwest;" parent="--r60nrAQB_nMp80lIBW-164" vertex="1">
          <mxGeometry y="130" width="190" height="26" as="geometry" />
        </mxCell>
        <mxCell id="--r60nrAQB_nMp80lIBW-170" value="struct device *device;" style="text;strokeColor=none;fillColor=none;align=left;verticalAlign=top;spacingLeft=4;spacingRight=4;overflow=hidden;rotatable=0;points=[[0,0.5],[1,0.5]];portConstraint=eastwest;" parent="--r60nrAQB_nMp80lIBW-164" vertex="1">
          <mxGeometry y="156" width="190" height="26" as="geometry" />
        </mxCell>
        <mxCell id="--r60nrAQB_nMp80lIBW-172" value="name" style="endArrow=block;endFill=1;html=1;edgeStyle=orthogonalEdgeStyle;align=left;verticalAlign=top;rounded=0;" parent="1" target="--r60nrAQB_nMp80lIBW-164" edge="1">
          <mxGeometry x="-1" relative="1" as="geometry">
            <mxPoint x="810" y="880" as="sourcePoint" />
            <mxPoint x="970" y="880" as="targetPoint" />
          </mxGeometry>
        </mxCell>
        <mxCell id="--r60nrAQB_nMp80lIBW-173" value="1" style="edgeLabel;resizable=0;html=1;align=left;verticalAlign=bottom;" parent="--r60nrAQB_nMp80lIBW-172" connectable="0" vertex="1">
          <mxGeometry x="-1" relative="1" as="geometry" />
        </mxCell>
        <mxCell id="--r60nrAQB_nMp80lIBW-174" value="name" style="endArrow=block;endFill=1;html=1;edgeStyle=orthogonalEdgeStyle;align=left;verticalAlign=top;rounded=0;entryX=1.008;entryY=0.01;entryDx=0;entryDy=0;entryPerimeter=0;" parent="1" target="--r60nrAQB_nMp80lIBW-110" edge="1">
          <mxGeometry x="-1" relative="1" as="geometry">
            <mxPoint x="1169" y="980" as="sourcePoint" />
            <mxPoint x="1329" y="980" as="targetPoint" />
          </mxGeometry>
        </mxCell>
        <mxCell id="--r60nrAQB_nMp80lIBW-175" value="1" style="edgeLabel;resizable=0;html=1;align=left;verticalAlign=bottom;" parent="--r60nrAQB_nMp80lIBW-174" connectable="0" vertex="1">
          <mxGeometry x="-1" relative="1" as="geometry" />
        </mxCell>
      </root>
    </mxGraphModel>
  </diagram>
  <diagram id="08J4RB2bZ9SiecszbZCe" name="网络驱动">
    <mxGraphModel dx="-18" dy="2663" grid="1" gridSize="10" guides="1" tooltips="1" connect="1" arrows="1" fold="1" page="1" pageScale="1" pageWidth="850" pageHeight="1100" math="0" shadow="0">
      <root>
        <mxCell id="0" />
        <mxCell id="1" parent="0" />
        <mxCell id="Ly-nfZgrSMi04LVIuMh4-19" value="mdio_bus" style="rounded=0;whiteSpace=wrap;html=1;" parent="1" vertex="1">
          <mxGeometry x="1670" y="-1440" width="70" height="320" as="geometry" />
        </mxCell>
        <mxCell id="Ly-nfZgrSMi04LVIuMh4-20" value="mdio_device" style="rounded=0;whiteSpace=wrap;html=1;" parent="1" vertex="1">
          <mxGeometry x="1800" y="-1310" width="120" height="60" as="geometry" />
        </mxCell>
        <mxCell id="Ly-nfZgrSMi04LVIuMh4-21" value="mdio_device" style="rounded=0;whiteSpace=wrap;html=1;" parent="1" vertex="1">
          <mxGeometry x="1800" y="-1420" width="120" height="60" as="geometry" />
        </mxCell>
        <mxCell id="Ly-nfZgrSMi04LVIuMh4-22" value="mdio_device" style="rounded=0;whiteSpace=wrap;html=1;" parent="1" vertex="1">
          <mxGeometry x="1800" y="-1200" width="120" height="60" as="geometry" />
        </mxCell>
        <mxCell id="Ly-nfZgrSMi04LVIuMh4-23" value="mdio_device" style="rounded=0;whiteSpace=wrap;html=1;" parent="1" vertex="1">
          <mxGeometry x="1490" y="-1200" width="120" height="60" as="geometry" />
        </mxCell>
        <mxCell id="Ly-nfZgrSMi04LVIuMh4-24" value="mdio_device" style="rounded=0;whiteSpace=wrap;html=1;" parent="1" vertex="1">
          <mxGeometry x="1490" y="-1310" width="120" height="60" as="geometry" />
        </mxCell>
        <mxCell id="Ly-nfZgrSMi04LVIuMh4-25" value="mdio_device" style="rounded=0;whiteSpace=wrap;html=1;" parent="1" vertex="1">
          <mxGeometry x="1490" y="-1420" width="120" height="60" as="geometry" />
        </mxCell>
        <mxCell id="Ly-nfZgrSMi04LVIuMh4-27" value="" style="endArrow=classic;html=1;rounded=0;" parent="1" source="Ly-nfZgrSMi04LVIuMh4-25" edge="1">
          <mxGeometry width="50" height="50" relative="1" as="geometry">
            <mxPoint x="1610" y="-1340" as="sourcePoint" />
            <mxPoint x="1670" y="-1390" as="targetPoint" />
          </mxGeometry>
        </mxCell>
        <mxCell id="Ly-nfZgrSMi04LVIuMh4-29" value="" style="endArrow=classic;html=1;rounded=0;" parent="1" edge="1">
          <mxGeometry width="50" height="50" relative="1" as="geometry">
            <mxPoint x="1610" y="-1280.42" as="sourcePoint" />
            <mxPoint x="1670" y="-1280.42" as="targetPoint" />
          </mxGeometry>
        </mxCell>
        <mxCell id="Ly-nfZgrSMi04LVIuMh4-30" value="" style="endArrow=classic;html=1;rounded=0;" parent="1" edge="1">
          <mxGeometry width="50" height="50" relative="1" as="geometry">
            <mxPoint x="1610" y="-1170.42" as="sourcePoint" />
            <mxPoint x="1670" y="-1170.42" as="targetPoint" />
          </mxGeometry>
        </mxCell>
        <mxCell id="Ly-nfZgrSMi04LVIuMh4-33" value="" style="endArrow=classic;html=1;rounded=0;entryX=1;entryY=0.156;entryDx=0;entryDy=0;entryPerimeter=0;exitX=0;exitY=0.5;exitDx=0;exitDy=0;" parent="1" source="Ly-nfZgrSMi04LVIuMh4-21" target="Ly-nfZgrSMi04LVIuMh4-19" edge="1">
          <mxGeometry width="50" height="50" relative="1" as="geometry">
            <mxPoint x="1790" y="-1380" as="sourcePoint" />
            <mxPoint x="1750" y="-1430" as="targetPoint" />
          </mxGeometry>
        </mxCell>
        <mxCell id="Ly-nfZgrSMi04LVIuMh4-34" value="" style="endArrow=classic;html=1;rounded=0;entryX=1;entryY=0.156;entryDx=0;entryDy=0;entryPerimeter=0;exitX=0;exitY=0.5;exitDx=0;exitDy=0;" parent="1" edge="1">
          <mxGeometry width="50" height="50" relative="1" as="geometry">
            <mxPoint x="1800" y="-1280.34" as="sourcePoint" />
            <mxPoint x="1740" y="-1280.4199999999998" as="targetPoint" />
          </mxGeometry>
        </mxCell>
        <mxCell id="Ly-nfZgrSMi04LVIuMh4-35" value="" style="endArrow=classic;html=1;rounded=0;entryX=1;entryY=0.156;entryDx=0;entryDy=0;entryPerimeter=0;exitX=0;exitY=0.5;exitDx=0;exitDy=0;" parent="1" edge="1">
          <mxGeometry width="50" height="50" relative="1" as="geometry">
            <mxPoint x="1800" y="-1170.34" as="sourcePoint" />
            <mxPoint x="1740" y="-1170.4199999999998" as="targetPoint" />
          </mxGeometry>
        </mxCell>
        <mxCell id="Ly-nfZgrSMi04LVIuMh4-36" value="&amp;nbsp;一共有32个mdio_device" style="text;html=1;align=center;verticalAlign=middle;resizable=0;points=[];autosize=1;strokeColor=none;fillColor=none;" parent="1" vertex="1">
          <mxGeometry x="1770" y="-1450" width="150" height="20" as="geometry" />
        </mxCell>
        <mxCell id="Ly-nfZgrSMi04LVIuMh4-37" value="mdio_bus也是一个设备的概念，它同时还有父设备" style="text;html=1;align=center;verticalAlign=middle;resizable=0;points=[];autosize=1;strokeColor=none;fillColor=none;" parent="1" vertex="1">
          <mxGeometry x="1570" y="-1505" width="290" height="30" as="geometry" />
        </mxCell>
        <mxCell id="Ly-nfZgrSMi04LVIuMh4-38" value="phy_device" style="rounded=0;whiteSpace=wrap;html=1;" parent="1" vertex="1">
          <mxGeometry x="1990" y="-1420" width="120" height="60" as="geometry" />
        </mxCell>
        <mxCell id="Ly-nfZgrSMi04LVIuMh4-40" value="" style="endArrow=classic;html=1;rounded=0;exitX=1;exitY=0.5;exitDx=0;exitDy=0;entryX=0;entryY=0.5;entryDx=0;entryDy=0;" parent="1" source="Ly-nfZgrSMi04LVIuMh4-21" target="Ly-nfZgrSMi04LVIuMh4-38" edge="1">
          <mxGeometry width="50" height="50" relative="1" as="geometry">
            <mxPoint x="1920" y="-1380" as="sourcePoint" />
            <mxPoint x="1980" y="-1390" as="targetPoint" />
          </mxGeometry>
        </mxCell>
        <mxCell id="Ly-nfZgrSMi04LVIuMh4-41" value="phy_device是一个mdio_device设备和网络设备" style="text;html=1;align=center;verticalAlign=middle;resizable=0;points=[];autosize=1;strokeColor=none;fillColor=none;" parent="1" vertex="1">
          <mxGeometry x="1950" y="-1450" width="260" height="20" as="geometry" />
        </mxCell>
        <mxCell id="Ly-nfZgrSMi04LVIuMh4-42" value="emac_handle" style="whiteSpace=wrap;html=1;" parent="1" vertex="1">
          <mxGeometry x="1645" y="-1080" width="120" height="60" as="geometry" />
        </mxCell>
        <mxCell id="Ly-nfZgrSMi04LVIuMh4-44" value="" style="edgeStyle=orthogonalEdgeStyle;rounded=0;orthogonalLoop=1;jettySize=auto;html=1;" parent="1" source="Ly-nfZgrSMi04LVIuMh4-43" target="Ly-nfZgrSMi04LVIuMh4-38" edge="1">
          <mxGeometry relative="1" as="geometry" />
        </mxCell>
        <mxCell id="Ly-nfZgrSMi04LVIuMh4-43" value="net_device" style="whiteSpace=wrap;html=1;" parent="1" vertex="1">
          <mxGeometry x="1990" y="-1560" width="120" height="60" as="geometry" />
        </mxCell>
        <mxCell id="Ly-nfZgrSMi04LVIuMh4-45" value="" style="endArrow=classic;startArrow=classic;html=1;rounded=0;entryX=0.5;entryY=1;entryDx=0;entryDy=0;" parent="1" source="Ly-nfZgrSMi04LVIuMh4-42" target="Ly-nfZgrSMi04LVIuMh4-19" edge="1">
          <mxGeometry width="50" height="50" relative="1" as="geometry">
            <mxPoint x="1700" y="-1200" as="sourcePoint" />
            <mxPoint x="1750" y="-1250" as="targetPoint" />
          </mxGeometry>
        </mxCell>
        <mxCell id="Ly-nfZgrSMi04LVIuMh4-46" value="与cpu相互通讯" style="text;html=1;align=center;verticalAlign=middle;resizable=0;points=[];autosize=1;strokeColor=none;fillColor=none;" parent="1" vertex="1">
          <mxGeometry x="1660" y="-1110" width="90" height="20" as="geometry" />
        </mxCell>
        <mxCell id="Ly-nfZgrSMi04LVIuMh4-47" value="这是cpu的mac层" style="text;html=1;align=center;verticalAlign=middle;resizable=0;points=[];autosize=1;strokeColor=none;fillColor=none;" parent="1" vertex="1">
          <mxGeometry x="1790" y="-1050" width="110" height="20" as="geometry" />
        </mxCell>
        <mxCell id="Ly-nfZgrSMi04LVIuMh4-52" value="" style="edgeStyle=orthogonalEdgeStyle;rounded=0;orthogonalLoop=1;jettySize=auto;html=1;entryX=0.5;entryY=1;entryDx=0;entryDy=0;" parent="1" source="Ly-nfZgrSMi04LVIuMh4-49" target="Ly-nfZgrSMi04LVIuMh4-38" edge="1">
          <mxGeometry relative="1" as="geometry">
            <mxPoint x="2050" y="-1350" as="targetPoint" />
          </mxGeometry>
        </mxCell>
        <mxCell id="Ly-nfZgrSMi04LVIuMh4-49" value="phy_driver" style="ellipse;whiteSpace=wrap;html=1;" parent="1" vertex="1">
          <mxGeometry x="1990" y="-1310" width="120" height="60" as="geometry" />
        </mxCell>
        <mxCell id="Ly-nfZgrSMi04LVIuMh4-51" value="" style="edgeStyle=orthogonalEdgeStyle;rounded=0;orthogonalLoop=1;jettySize=auto;html=1;" parent="1" source="Ly-nfZgrSMi04LVIuMh4-50" target="Ly-nfZgrSMi04LVIuMh4-49" edge="1">
          <mxGeometry relative="1" as="geometry" />
        </mxCell>
        <mxCell id="Ly-nfZgrSMi04LVIuMh4-50" value="mdio_driver_common" style="ellipse;whiteSpace=wrap;html=1;" parent="1" vertex="1">
          <mxGeometry x="1980" y="-1210" width="140" height="60" as="geometry" />
        </mxCell>
        <mxCell id="fyzZhs0krdB3kSoV-Zhn-1" value="" style="endArrow=classic;html=1;rounded=0;exitX=1;exitY=0.5;exitDx=0;exitDy=0;entryX=0.5;entryY=1;entryDx=0;entryDy=0;" parent="1" source="Ly-nfZgrSMi04LVIuMh4-43" target="Ly-nfZgrSMi04LVIuMh4-42" edge="1">
          <mxGeometry width="50" height="50" relative="1" as="geometry">
            <mxPoint x="2110" y="-1500" as="sourcePoint" />
            <mxPoint x="2160" y="-1550" as="targetPoint" />
            <Array as="points">
              <mxPoint x="2260" y="-1530" />
              <mxPoint x="2260" y="-1000" />
              <mxPoint x="1705" y="-1000" />
            </Array>
          </mxGeometry>
        </mxCell>
      </root>
    </mxGraphModel>
  </diagram>
</mxfile>
